# xmcd
#
# Track frame offsets: 
#        150
#        9894
#        20793
#        32638
#        45633
#        55962
#        70693
#        82336
#        94511
#        105372
#        116389
#        128052
#        142298
#        153052
#        164650
#        176647
#        189771
#        201168
#        212795
#        223520
#        234783
#        247957
#        258507
#        270227
#        282455
#        294677
#        307140
#        318531
#        329616
#        340609
#
# Disc length: 4696 seconds
#
# Revision: 0
# Processed by: cddbd v1.5.2PL0 Copyright (c) Steve Scherf et al.
# Submitted via: ExactAudioCopy v1.0b1
#
DISCID=b412561e
DTITLE=Eddie Holland - It Moves Me - Complete Motown Recordings
DYEAR=2012
DGENRE=R&B
TTITLE0=Little Miss Ruby
TTITLE1=You (You You You You)
TTITLE2=(Where's The Joy?) In Nature Boy
TTITLE3=Shock
TTITLE4=Merry-Go-Round
TTITLE5=It Moves Me
TTITLE6=Because I Love Her
TTITLE7=Everybody's Going
TTITLE8=Magic Mirror
TTITLE9=Will You Love Me
TTITLE10=Why Do You Want To Let Me Go
TTITLE11=The Last Laugh
TTITLE12=Jamie
TTITLE13=Take A Chance On Me
TTITLE14=You Deserve What You Got
TTITLE15=Last Night I Had A Vision
TTITLE16=If Cleopatra Took A Chance
TTITLE17=What About Me
TTITLE18=If It's Love (It's Alright)
TTITLE19=It's Not Too Late
TTITLE20=Darling, I Hum Our Song
TTITLE21=Just A Few More Days
TTITLE22=Baby Shake
TTITLE23=Brenda
TTITLE24=I'm On The Outside Looking In
TTITLE25=I Couldn't Cry If I Wanted To
TTITLE26=Leaving Here
TTITLE27=Just Ain't Enough Love
TTITLE28=Candy To Me
TTITLE29=If You Don't Want My Love
EXTD=
EXTT0=
EXTT1=
EXTT2=
EXTT3=
EXTT4=
EXTT5=
EXTT6=
EXTT7=
EXTT8=
EXTT9=
EXTT10=
EXTT11=
EXTT12=
EXTT13=
EXTT14=
EXTT15=
EXTT16=
EXTT17=
EXTT18=
EXTT19=
EXTT20=
EXTT21=
EXTT22=
EXTT23=
EXTT24=
EXTT25=
EXTT26=
EXTT27=
EXTT28=
EXTT29=
PLAYORDER=
